<?xml version="1.0" encoding="utf-8"?>
<!-- Generator: Adobe Illustrator 22.1.0, SVG Export Plug-In . SVG Version: 6.00 Build 0)  -->
<svg version="1.1" id="Layer_1" xmlns="http://www.w3.org/2000/svg" xmlns:xlink="http://www.w3.org/1999/xlink" x="0px" y="0px"
	 viewBox="0 0 600 200" style="enable-background:new 0 0 600 200;" xml:space="preserve">
<style type="text/css">
	.st0{fill:#EC2227;stroke:#EC2227;stroke-width:4;stroke-miterlimit:10;}
	.st1{fill:#F15B2B;stroke:#F15B2B;stroke-width:4;stroke-miterlimit:10;}
	.st2{fill:#F15B2B;stroke:#F15B2B;stroke-width:3;stroke-miterlimit:10;}
	.st3{fill:#F15B2B;stroke:#F15B2B;stroke-width:2;stroke-miterlimit:10;}
	.st4{fill:#FCEE23;stroke:#FCEE23;stroke-width:2;stroke-miterlimit:10;}
	.st5{fill:#06A64F;stroke:#06A64F;stroke-width:2;stroke-miterlimit:10;}
	.st6{fill:#2E368F;stroke:#2E368F;stroke-width:2;stroke-miterlimit:10;}
	.st7{fill:#292562;stroke:#292562;stroke-width:2;stroke-miterlimit:10;}
	.st8{fill:#67308F;stroke:#67308F;stroke-width:2;stroke-miterlimit:10;}
	.st9{fill:#FCEE23;stroke:#FCEE23;stroke-width:4;stroke-miterlimit:10;}
	.st10{fill:#F15B2B;stroke:#EF4237;stroke-miterlimit:10;}
	.st11{fill:#F15B2B;stroke:#F15B2B;stroke-miterlimit:10;}
	.st12{fill:#FFFFFF;stroke:#FFFFFF;stroke-width:0.25;stroke-miterlimit:10;}
</style>
<g id="Layer_2_1_">
	<path class="st0" d="M81.2,36c0,0,4.9-7.3,4.2-9.1c-0.7-1.8-8.8-2.2-8.8-2.2s-1.8-1.9,0.7-3.7s27.2-14.9,65-15.9
		c0,0,12.1-0.9,8.6,2.6s-49.8,10.5-50.7,12.8s-5,16.9-5,16.9l-14.5,0.2L81.2,36z"/>
	<path class="st0" d="M341.8,34.5c0,0-1-17.7,3.4-20.6c0,0,9.9-8.3,11-1.9c1,6.4,1.4,22,1.4,22L341.8,34.5z"/>
	<path class="st0" d="M404,33.8c0,0,7.3-16.7,11.5-20.5s6.4-5.7,9.7-5.5c3.3,0.2,6,1.1,6.3,2.2c0.4,1.1-11.6,23.6-11.6,23.6
		L404,33.8z"/>
	<polygon class="st1" points="80,39.4 76.6,52.5 91.7,52.7 95.7,38.9 	"/>
	<path class="st1" d="M143.2,37.5l-2.4,14.8l25.6-0.4l3.8-4.6c0,0,1.1-1.1,1.8-0.4c0.7,0.7,0.5,5.4,0.5,5.4l13.5-0.5V36.9L167.8,37
		c0,0-8.8,10.2-10.1,10.1c-1.3-0.1-1.4-8.9-1.4-8.9L143.2,37.5z"/>
	<path class="st1" d="M219.9,52.4H206c0,0,14.6-14.3,20.2-14.8s7.5-0.9,10,0c2.4,0.9,10,4.2,13.5,8.9s3.9,5.5,3.9,5.5l-19.5-0.2
		c0,0-1.4-5.3-5.2-4.7S219.9,52.4,219.9,52.4z"/>
	<path class="st1" d="M294.6,50.7c0,0,2.2-5,5.5-4.6c1.9,0.2,3.6,1.7,4.7,2.9c0.8,0.9,1.3,1.6,1.3,1.6l19.4-0.2
		c0,0-9.3-14-19.5-13.8s-19.1,1-25,12.9L294.6,50.7z"/>
	<polygon class="st1" points="340.5,33.8 339,51.1 354.9,50.9 355.9,33.8 	"/>
	<polygon class="st2" points="371.8,34.2 363.6,50.8 384.8,50.5 383.9,34.2 	"/>
	<path class="st3" d="M354.9,42.4"/>
	<polyline class="st3" points="405.1,33.7 397.8,49 413.7,49.6 420.5,34.7 402.7,33.8 395.9,49.6 	"/>
	<path class="st3" d="M431.5,49.9h16.4c0,0,4.1-4.4,5.5-3.7c1.5,0.7,1.7,3.4,1.7,3.4l13.3-0.1c0,0,1.9-7.5-1.8-10.4
		c-3.7-2.9-10.4-4.4-15.1-2.3S431.5,49.9,431.5,49.9z"/>
	<path class="st3" d="M483.1,48.5c0,0,6.3-7.7,9.5-7.6c3.2,0.1,6.9,0.5,7.2,1.9s0.3,1.3,0.3,1.3v4.4H483.1z"/>
	<path class="st3" d="M527.8,47c0,0,0.9-11,2.9-12.3s4.8-2.5,7.4-2.4s4.6,0.5,5.5,2c0.9,1.6,0.6,14.2,0.6,14.2L527.8,47z"/>
	<path class="st4" d="M74.6,54.5l-2.1,11.4c0,0-15.1,7.5-15.4,9.4c0,0-1.9,2.7-1.2,3.4c0.7,0.7,1,1.8,2.9,1.3S69,76.2,69,76.2
		s3.3-2.2,1.9-0.3c-1.4,1.9-2.1,6.4-2.1,6.4h16.9c0,0,1-10.7,2.3-11.2s34.1-2.1,34.1-2.1s6-4,7.6-6.1s3.6-4,0-4.7
		c-3.6-0.8-38.9,3.4-38.9,3.4l1.3-7.1L74.6,54.5L74.6,54.5z"/>
	<path class="st4" d="M138.8,53.9l-7.6,27.4h17.2c0,0-2.1-8.8,2.8-13.7c4.9-4.9,15.2-13.7,15.2-13.7L138.8,53.9L138.8,53.9z"/>
	<path class="st4" d="M171.6,54.5c0,0-6.1,17-5.5,19.2s0.6,3.4,1.5,3.5s5,0.6,8.5-3c3.5-3.5,10.7-20.4,10.7-20.4L171.6,54.5z"/>
	<path class="st4" d="M203.8,54.5c0,0-4.2,15.6-7.1,17.6c-2.9,2-13.6,7-13.7,7.8s-0.5,1.8-0.5,1.8l27.8-0.5c0,0-1.9-2.1,7.8-5.6
		s28.5-9.6,29.2-10.1s8.1-3,8.9-5s1.6-3.2,1.4-4.3c-0.2-1.1-2.1-2.5-2.1-2.5h-22.6c0,0,5.2,1.3,5.9,2.4c0.8,1.1-0.7,3.4-3.6,4
		c-3,0.6-17.7,6-19.3,5.7s-7.3,2.7-4.2-1.1c3.1-3.8,8.4-10.4,8.4-10.4h-16.3V54.5z"/>
	<path class="st4" d="M231.2,74.9"/>
	<path class="st4" d="M338.2,52.7l-1.1,26.8h28.5c0,0,0.6-2.1,1.4-1.9c0.8,0.1,1.6,1.9,1.6,1.9h14.9l1.7-28l-24.1,0.7l-7.2,22.5
		l0.9-22.1L338.2,52.7z"/>
	<polyline class="st4" points="395.7,50.4 386.9,79 403.6,79 413.4,50.4 395,50.4 	"/>
	<path class="st4" d="M279,52.4c0,0-7,21-12.2,23.4s-10,2.8-10.2,3.7c-0.2,0.8,0,1.6,0,1.6l25.8-0.4l42.7-16.5c0,0,6.4-2.8,5.8-5.8
		s-3.3-5.9-3.3-5.9l-19.5,0.7c0,0,5.6,3.1,5,4.1s-23.5,9.5-23.5,9.5s-3.4,1.2-3.5,0s9.1-13.2,9.1-13.2L279,52.4z"/>
	<polygon class="st5" points="68.8,82.4 64.5,104.9 81.7,104.7 85.8,81.3 	"/>
	<path class="st5" d="M103.4,79.9"/>
	<polygon class="st6" points="64.7,103.9 60.9,128.5 76.2,128.3 82.1,103.9 	"/>
	<path class="st7" d="M60.3,128.8c0,0,0.6,2.9,2.2,3.3c1.6,0.4,8.6,0.6,9.7,0.3c1-0.3,4.5-3.9,4.5-3.9L60.3,128.8z"/>
	<polygon class="st5" points="131.2,81.3 128.5,103.9 146.4,103.9 148.4,82.2 	"/>
	<path class="st5" d="M208.9,81.9l-0.7,21.5l-16.9,0.2c0,0,2.5-16,1.9-17.5s-2.5,0.3-3.8,0.4s-3.9,0.5-4.7-0.2s-2.6-3.7-2.6-3.7
		L208.9,81.9z"/>
	<path class="st5" d="M255.8,81.4c0,0-1,3.2,1.1,4.1s9.2-0.9,9.2-0.9l-2,17.8h17.7v-21H255.8z"/>
	<polygon class="st5" points="336.4,80.1 334.9,101.9 357.3,101.6 365.6,79.5 	"/>
	<polygon class="st5" points="383.5,79.5 384.6,91.6 386.9,79 403.6,79 396.4,101.1 369.8,101.4 368.7,80.6 	"/>
	<path class="st4" d="M431.5,49.9c0,0-14.9,19-14.9,19.6c0.1,0.6,0.1,0.6,0.1,0.6s-0.8,2.7,2.1,2.9c2.8,0.2,7.4-0.1,9.6-1
		c2.3-0.9,18.8-21.6,18.8-21.6L431.5,49.9z"/>
	<path class="st4" d="M455,49.9v17.4c0,0,1.7,2-5.8,5.7c-7.6,3.7-12.5,5.8-12.5,5.8l30.5-0.7l1.3-28.2L455,49.9L455,49.9z"/>
	<polygon class="st4" points="482.3,49.3 475.9,78 491.1,78 500.1,49.3 	"/>
	<path class="st4" d="M527.5,48.7c0,0,1.1,6.8,0.4,9.5c-0.7,2.7-9.3,19.6-9.3,19.6l20.1-0.2c0,0,4.3-17.1,4.6-21.2
		c0.3-4,0.9-7.9,0.9-7.9L527.5,48.7z"/>
	<path class="st5" d="M435.5,79c0,0-26.9,15.4-28.7,21.4h14.3c0,0,19.9-14.2,24.9-16c4.9-1.7,6.8-3,7-1.7s-2.6,17.2-2.6,17.2
		l14.8-0.4l1.9-22.6L435.5,79z"/>
	<path class="st5" d="M476.2,76.8l-1.8,23.3l15.5-0.2c0,0,0.1-20.2,0.7-21.1C491.1,78,476.2,76.8,476.2,76.8z"/>
	<polygon class="st5" points="518.9,77 509.2,99.5 534.5,99.5 538.9,76.5 	"/>
	<path class="st6" d="M128.7,102.5c0,0-1.1,22.9,0,24.1c1.1,1.2,3.7,1.9,5.8,1.5s8.5-2.5,8.9-3.7s2.8-21.9,2.8-21.9H128.7z"/>
	<path class="st6" d="M191.5,102.5c0,0,0.5,14.3,2.9,17.5s7.5,7,7.5,7l25-0.3c0,0,26.8-22.8,26.7-23.9c-0.1-1-16.2-0.4-16.2-0.4
		S225,119.2,219,118.6c-6-0.6-10.9-2.3-11.1-9.8c-0.1-7.5-0.1-7.5-0.1-7.5L191.5,102.5z"/>
	<path class="st6" d="M264.3,101.7c0,0,2.3,18.8,7.4,21.6c5.1,2.8,5.1,2.8,5.1,2.8l24.9-0.3c0,0,22.9-19.3,23.3-20.8
		s0.5-2.6,0.5-2.6l-12.1-0.2c0,0-15.7,15.4-20.2,15.7s-3.7,0.9-6.4-0.8s-5.8-14.4-5.8-14.4L264.3,101.7z"/>
	<polygon class="st6" points="334.9,101 332.3,125.1 347.1,125.1 357.5,101 	"/>
	<polygon class="st6" points="369.8,100.2 373.7,125 389.9,124.8 397.2,100.2 	"/>
	<path class="st6" d="M407.8,98.7c0,0-3.6,5.4-4.2,10s0.2,11.2,2.1,12.9c1.9,1.6,3.6,3,3.6,3l22.6-0.3c0,0,11.9-6.5,14.4-6.2
		s1.7,5.6,1.7,5.6l15.1,0.3l2.1-24.4l-14.8,0.4c0,0,0.9,4.9-0.6,6s-4.2,3.2-12.8,6.3c-8.7,3.2-10.5,4.5-13.4,3.7s-4.9-2.6-4.9-4.4
		s-1.5-5,0.4-8.1s3.3-4.1,3.3-4.1L407.8,98.7z"/>
	<path class="st6" d="M489.9,98.7c0,0-0.9,4.2,0,7.8c0.9,3.6,4.1,6.7,5.5,6.8c1.4,0.1,4.6,1.3,7.1-1.6s7.4-13.9,7.4-13.9h24.9
		l-6.7,25.2h-14.6l1.2-3.4l3.2-9.2c0,0-9.5,11.2-11.1,11.8c-1.6,0.6-2.9,1.3-2.9,1.3l-21.5,0.3c0,0-8.1-5.1-8.1-11.7s0-13.2,0-13.2
		h15.6V98.7z"/>
	<path class="st7" d="M476.4,154.9c0,0,2-6.6,6.1-8.2s4.5-2.1,6.7-1.5s3.6,9.4,3.6,9.4L476.4,154.9z"/>
	<polygon class="st7" points="505.6,154.5 514,121.4 528.5,121.4 519.9,154.3 	"/>
	<path class="st7" d="M480.9,122.4c0,0,2.6,2.8,5.7,3.4s13.3,0.7,14.3,0c1.1-0.7,5.3-3.6,5.3-3.6L480.9,122.4z"/>
	<path class="st7" d="M448.2,122.8c0,0-0.8,5.6,0.3,8.1c1.1,2.5,4.1,2.9,5.3,2.8c1.2-0.2,8.1-3.4,8.5-4.4s1.1-6.8,1.1-6.8
		L448.2,122.8z"/>
	<path class="st7" d="M407.7,123.2c0,0,4.6,3.7,6.6,4.2s7.9,0.4,9.7,0c1.9-0.4,8.5-3.5,8.5-3.5L407.7,123.2z"/>
	<path class="st7" d="M373.5,124c0,0,1.2,6.8,3,7.6s10.2-3.4,10.2-3.4l3.4-4.2H373.5z"/>
	<path class="st7" d="M332.4,124c0,0-0.5,4.3-0.1,4.9s0.4,1.7,1.8,1.7s11.2-3.3,11.2-3.3s1.5-1.3,2.2-2.9L332.4,124z"/>
	<path class="st7" d="M275.6,125.5c0,0,3.4,3.4,7.2,4.3s13.5-0.5,14.3-1s5.8-4.1,5.8-4.1L275.6,125.5z"/>
	<path class="st7" d="M200,125.4c0,0,6.1,4.6,7.9,4.7c1.8,0.1,10.4,0.5,11.8,0c1.4-0.5,8.7-4.7,8.7-4.7H200z"/>
	<path class="st8" d="M477,153.3c0,0-1.7,20-0.6,26.2c1.2,6.1,6.6,15.4,9.1,17.6s8.6,2.8,9.8,2.5s11.9-4.6,15.8-15.3
		c3.8-10.6,9.3-31.8,9.3-31.8h-14.3c0,0-4.5,23.5-6.6,25.3s-4.3,4.8-5.5,3.2s-1.6-28.5-1.6-28.5L477,153.3z"/>
	<path class="st0" d="M142.9,39.2c0,0,2.4-4.8,4.9-5.6s7.4-0.8,8.2,0s0.2,6.3,0.2,6.3L142.9,39.2z"/>
	<path class="st0" d="M167,37.9c0,0,2.8-4.2,5.6-4.9s7.9-1.1,8.5-0.7c0.6,0.5,4,1.4,4.3,1.9s0.4,4.7,0.4,4.7L167,37.9z"/>
	<path class="st0" d="M371.2,35.3c0,0,2-5.7,4.2-6c2.3-0.3,7-0.4,7.3,0s1.3,7.1,1.3,7.1L371.2,35.3z"/>
	<path class="st9" d="M305.2,50.7c4.7,3,10,6.4,10,6.4l6.1-1.6l3.5-1.2"/>
	<path class="st10" d="M304.2,49.6"/>
	<polygon class="st11" points="304.1,50.4 304.9,51.9 308.7,50.3 308,49 305.9,48.6 	"/>
	<path class="st11" d="M305.9,52.6"/>
	<polygon class="st11" points="304.4,51 305.6,52.9 311.1,51.5 309.6,50.1 	"/>
	<polygon class="st12" points="304.1,51.5 304.2,51.7 305.6,53.7 303.6,52.5 	"/>
	<path class="st12" d="M303.5,50.7l0.7,1c0,0-1.3-2-1.8-2.1"/>
	<polygon class="st12" points="339,27.1 336.6,62.1 339.4,29.1 	"/>
	<path class="st12" d="M337.1,25.3l2.2,0.9l0.3,7.5l-2.4,19.9c0,0-0.4,3.4-1,3.4C335.7,57.2,337.1,25.3,337.1,25.3z"/>
	<polygon class="st12" points="358.7,14.5 355.9,58.2 362,24.7 	"/>
	<polygon class="st12" points="364.1,13 386.2,0.3 364.1,4 	"/>
	<polygon class="st12" points="385.2,30.1 386,42.5 390.7,34.2 	"/>
	<polygon class="st12" points="432.8,46.4 426.1,55.2 422.2,52.8 	"/>
	<polygon class="st12" points="278.9,47.6 280,46.6 277.3,54.1 275.2,53.5 	"/>
	<path class="st12" d="M231.3,50.8c0,0,3.1,4.7,2.7,5.5c-0.4,0.8-1.9,0-1.9,0L231.3,50.8z"/>
	<path class="st12" d="M229.8,49.5c6.8,7,7.9,7.2,7.6,7.4s-6.9,0.5-6.9,0.5L229.8,49.5z"/>
	<path class="st12" d="M206.2,48.8c0,0-5.3,7.9-5.3,8.3s-2.5-1.9-2.5-1.9L206.2,48.8z"/>
	<polygon class="st12" points="168.7,52.3 164.3,58 170.5,54.9 171.1,53 170.4,50.1 	"/>
	<polygon class="st12" points="142.9,35.5 139.8,43.1 137.6,34.7 	"/>
	<path class="st12" d="M77.9,125.1c0,0-2.1,9-2.3,9.2c-0.2,0.2,7.1-9.2,7.1-9.2H77.9z"/>
	<polygon class="st12" points="87.9,134.3 68.5,137.8 87.9,136.5 	"/>
	<path class="st12" d="M59.9,126c0,0-0.7,6.1-0.5,6.6s-2.5-0.9-2.5-0.9L59.9,126z"/>
	<polygon class="st12" points="98.4,33.4 92.4,56.7 99.8,50.5 	"/>
	<path class="st12" d="M213,80.2c0,0-3-0.3-3,0s0,3.6,0,3.6l6.7-0.5L213,80.2z"/>
	<path class="st12" d="M217.6,79.3l-7.1,1c0,0,1.1-1.1,5.1-2.2s4.9,1.5,4.9,1.5l-1.8,4.2l-8.4-3"/>
	<polygon class="st12" points="392.3,120.5 388.5,130 398.2,121.2 	"/>
</g>
</svg>
